{"title":"Yukihiko Tsutsumi - 2LDK - 2003 - DVDRip.JAP XviD","uid":8743351,"size":731273216,"categoryP":"video","categoryS":"movies","magnet":"?xt=urn:btih:0c720068cff08a02d04e0309331744129706d543&amp;dn=Yukihiko+Tsutsumi+-+2LDK+-+2003+-+DVDRip.JAP+XviD&amp;tr=udp%3A%2F%2Ftracker.openbittorrent.com%3A80&amp;tr=udp%3A%2F%2Fopen.demonii.com%3A1337&amp;tr=udp%3A%2F%2Ftracker.coppersurfer.tk%3A6969&amp;tr=udp%3A%2F%2Fexodus.desync.com%3A6969","seeders":0,"leechers":1,"uploader":null,"files":1,"time":1374852237,"description":"Two actresses who have auditioned for one part, sharing the same apartment with opposite personalities equals a night which either neither of them will forget - if they survive! \n\nSUBS: http://www.opensubtitles.org/en/search/sublanguageid-all/idmovie-4930\n &lt;a href=&quot;\nhttp://www.imdb.com/title/tt0362387/&quot; rel=&quot;nofollow&quot; target=&quot;_NEW&quot;&gt;\nhttp://www.imdb.com/title/tt0362387/&lt;/a&gt;\n\nGeneral\nComplete name : [ASIAN] 2LDK (Dvd-rip.JAP).avi\nFormat : AVI\nFormat/Info : Audio Video Interleave\nFile size : 697 MiB\nDuration : 1h 9mn\nOverall bit rate : 1 397 Kbps\nWriting application : Nandub v1.0rc2\nWriting library : Nandub build 1852/release\n\nVideo\nID : 0\nFormat : MPEG-4 Visual\nFormat settings, BVOP : No\nFormat settings, QPel : No\nFormat settings, GMC : No warppoints\nFormat settings, Matrix : Default (MPEG)\nCodec ID : DIVX\nCodec ID/Info : Project Mayo\nCodec ID/Hint : DivX 4\nDuration : 1h 9mn\nBit rate : 1 004 Kbps\nWidth : 640 pixels\nHeight : 352 pixels\nDisplay aspect ratio : 16:9\nFrame rate : 23.976 fps\nColor space : YUV\nChroma subsampling : 4:2:0\nBit depth : 8 bits\nScan type : Progressive\nCompression mode : Lossy\nBits/(Pixel*Frame) : 0.186\nStream size : 501 MiB (72%)\n\nAudio\nID : 1\nFormat : AC-3\nFormat/Info : Audio Coding 3\nMode extension : CM (complete main)\nCodec ID : 2000\nDuration : 1h 9mn\nBit rate mode : Constant\nBit rate : 384 Kbps\nChannel(s) : 6 channels\nChannel positions : Front: L C R, Side: L R, LFE\nSampling rate : 48.0 KHz\nBit depth : 16 bits\nCompression mode : Lossy\nStream size : 192 MiB (27%)\nAlignment : Split accross interleaves\nInterleave, duration : 42 ms (1.00 video frame)\nInterleave, preload duration : 500 ms\n","torrent":{"xt":"urn:btih:0c720068cff08a02d04e0309331744129706d543","amp;dn":"Yukihiko+Tsutsumi+-+2LDK+-+2003+-+DVDRip.JAP+XviD","amp;tr":["udp%3A%2F%2Ftracker.openbittorrent.com%3A80","udp%3A%2F%2Fopen.demonii.com%3A1337","udp%3A%2F%2Ftracker.coppersurfer.tk%3A6969","udp%3A%2F%2Fexodus.desync.com%3A6969"],"infoHash":"0c720068cff08a02d04e0309331744129706d543","infoHashBuffer":{"type":"Buffer","data":[12,114,0,104,207,240,138,2,208,78,3,9,51,23,68,18,151,6,213,67]},"announce":[],"urlList":[]}}